
<svg width="337px" height="236px" viewBox="0 0 337 236" version="1.1" xmlns="http://www.w3.org/2000/svg" xmlns:xlink="http://www.w3.org/1999/xlink">
    <!-- Generator: Sketch 41.2 (35397) - http://www.bohemiancoding.com/sketch -->
    <desc>Created with Sketch.</desc>
    <defs>
        <path d="M0.951,0.838 L10.263,0.838 L10.263,13.723 C10.263,16.284 8.168,18.379 5.607,18.379 L5.606,18.379 C3.046,18.379 0.951,16.284 0.951,13.723 L0.951,0.838 Z M0.951,0.838 L10.263,0.838 L10.263,18.379 L0.951,18.379 L0.951,0.838 Z" id="path-1"></path>
    </defs>
    <g id="1" stroke="none" stroke-width="1" fill="none" fill-rule="evenodd">
        <polygon id="Fill-1" fill="#61DDFF" points="0.209 235.738 336.209 235.738 336.209 0.538 0.209 0.538"></polygon>
        <path d="M286.169,218.245 L48.313,218.245 C44.692,218.245 41.729,215.282 41.729,211.661 C41.729,208.04 44.692,205.077 48.313,205.077 L286.169,205.077 C289.79,205.077 292.753,208.04 292.753,211.661 C292.753,215.282 289.79,218.245 286.169,218.245" id="Fill-2" fill="#96E8FF"></path>
        <path d="M172.103,133.228 L221.719,133.228 L221.719,39.876 L172.103,39.876 L172.103,133.228 Z M175.411,58.74 L218.412,58.74 L218.412,52.86 L175.411,52.86 L175.411,58.74 Z" id="Fill-3" fill="#96E8FF"></path>
        <path d="M114.769,133.228 L164.385,133.228 L164.385,39.876 L114.769,39.876 L114.769,133.228 Z M118.076,58.74 L161.077,58.74 L161.077,52.86 L118.076,52.86 L118.076,58.74 Z" id="Fill-4" fill="#96E8FF"></path>
        <polygon id="Fill-5" fill="#96E8FF" points="56.99 214.826 88.965 214.826 88.965 106.122 56.99 106.122"></polygon>
        <polygon id="Fill-6" fill="#96E8FF" points="71.14 214.826 103.115 214.826 103.115 106.122 71.14 106.122"></polygon>
        <path d="M121.659,68.939 L121.66,68.939 C122.944,68.939 123.995,69.99 123.995,71.274 L123.995,207.962 L119.324,207.962 L119.324,71.274 C119.324,69.99 120.375,68.939 121.659,68.939" id="Fill-7" fill="#2275B9"></path>
        <path d="M131.679,70.871 L179.4,58.084 C180.635,57.753 181.374,56.472 181.044,55.237 L181.043,55.236 C180.712,54.001 179.431,53.262 178.196,53.593 L130.476,66.379 C129.24,66.71 128.501,67.991 128.832,69.226 L128.832,69.227 C129.163,70.462 130.444,71.202 131.679,70.871" id="Fill-8" fill="#2275B9"></path>
        <path d="M122.25,73.397 L169.971,60.61 C171.206,60.279 171.946,58.998 171.615,57.763 C171.284,56.528 170.003,55.788 168.768,56.119 L121.047,68.906 C119.812,69.237 119.072,70.518 119.403,71.753 C119.734,72.988 121.015,73.728 122.25,73.397" id="Fill-9" fill="#61ABE8"></path>
        <path d="M133.441,73.572 L199.857,55.776 C203.786,54.724 207.861,57.076 208.914,61.005 L210.828,68.148 L130.126,89.772 L128.213,82.629 C127.16,78.7 129.512,74.625 133.441,73.572" id="Fill-10" fill="#516287"></path>
        <path d="M133.441,73.572 L178.744,61.434 C182.672,60.381 186.747,62.733 187.8,66.662 L189.714,73.805 L130.126,89.772 L128.213,82.629 C127.16,78.7 129.512,74.625 133.441,73.572" id="Fill-11" fill="#6F83AD"></path>
        <path d="M157.539,82.426 L199.895,71.077 L200.243,72.378 C200.435,73.093 200.007,73.835 199.291,74.027 L159.536,84.679 C158.821,84.871 158.079,84.442 157.888,83.727 L157.539,82.426" id="Fill-12" fill="#EDF4FF"></path>
        <path d="M138.742,87.463 L181.098,76.114 L181.447,77.415 C181.638,78.13 181.21,78.872 180.495,79.063 L140.74,89.716 C140.024,89.907 139.283,89.479 139.091,88.764 L138.742,87.463" id="Fill-13" fill="#FFFFFF"></path>
        <path d="M121.598,70.011 C122.252,70.011 122.782,70.541 122.782,71.195 C122.782,71.849 122.252,72.379 121.598,72.379 C120.944,72.379 120.414,71.849 120.414,71.195 C120.414,70.541 120.944,70.011 121.598,70.011" id="Fill-14" fill="#FFFFFF"></path>
        <polyline id="Fill-15" fill="#0D497A" points="159.933 63.3 164.671 62.03 165.464 64.992 160.727 66.261 159.933 63.3"></polyline>
        <polyline id="Fill-16" fill="#2275B9" points="157.03 64.078 161.767 62.808 162.561 65.77 157.823 67.039 157.03 64.078"></polyline>
        <path d="M133.568,86.608 L185.001,72.826 C185.463,72.703 185.723,72.228 185.58,71.772 C185.436,71.315 184.941,71.043 184.48,71.167 L133.047,84.948 C132.585,85.072 132.325,85.547 132.468,86.003 C132.611,86.46 133.106,86.732 133.568,86.608" id="Fill-17" fill="#516287"></path>
        <path d="M73.585,151.771 L207.477,151.771 C211.615,151.771 215.001,155.157 215.001,159.295 L215.001,161.427 C215.001,164.393 212.574,166.82 209.608,166.82 L76.05,166.82 C71.912,166.82 68.526,163.434 68.526,159.296 L68.526,156.831 C68.526,154.048 70.803,151.771 73.585,151.771" id="Fill-18" fill="#3E4D6E"></path>
        <path d="M73.585,151.771 L207.477,151.771 C210.947,151.771 213.888,154.153 214.747,157.362 C214.239,160.982 211.969,163.733 209.267,163.733 L76.32,163.733 C72.673,163.733 69.591,160.143 68.752,155.338 C69.392,153.278 71.321,151.771 73.585,151.771" id="Fill-19" fill="#516287"></path>
        <path d="M54.44,113.955 L82.783,113.955 C86.921,113.955 92.481,117.341 95.138,121.479 L109.754,144.247 C112.411,148.385 111.199,151.771 107.06,151.771 L71.772,151.771 C67.634,151.771 62.075,148.385 59.418,144.247 L49.26,128.424 C44.151,120.466 46.482,113.955 54.44,113.955" id="Fill-20" fill="#5C6C91"></path>
        <path d="M57.105,113.955 L82.783,113.955 C86.922,113.955 92.481,117.341 95.138,121.479 L109.754,144.246 C112.411,148.385 111.199,151.771 107.06,151.771 L77.01,151.771 C72.871,151.771 67.738,148.078 64.655,144.246 L51.924,128.424 C45.996,121.056 49.147,113.955 57.105,113.955" id="Fill-21" fill="#6F83AD"></path>
        <path d="M91.101,117.242 C92.707,118.451 94.131,119.911 95.138,121.479 L109.754,144.246 C110.206,144.95 110.545,145.631 110.777,146.278 C110.161,147.337 108.917,147.974 107.123,147.974 L80.905,147.974 C76.766,147.974 71.204,144.59 68.549,140.449 L56.535,121.708 C54.617,118.715 55.491,116.269 58.482,116.269 L86.786,116.269 C88.124,116.269 89.612,116.623 91.101,117.242" id="Fill-22" fill="#5C6C91"></path>
        <path d="M73.585,151.771 L173.286,151.771 C177.425,151.771 180.811,155.157 180.811,159.295 L180.811,161.427 C180.811,164.393 178.384,166.82 175.418,166.82 L76.05,166.82 C71.912,166.82 68.526,163.434 68.526,159.296 L68.526,156.831 C68.526,154.048 70.803,151.771 73.585,151.771" id="Fill-23" fill="#5C6C91"></path>
        <path d="M73.585,151.771 L173.286,151.771 C177.425,151.771 180.811,155.157 180.811,159.295 L180.811,159.446 C180.811,161.804 178.882,163.733 176.524,163.733 L74.507,163.733 C71.217,163.733 68.526,161.042 68.526,157.752 L68.526,156.831 C68.526,154.048 70.802,151.771 73.585,151.771" id="Fill-24" fill="#6F83AD"></path>
        <path d="M58.482,114.89 L86.786,114.89 C90.924,114.89 96.487,118.275 99.141,122.415 L109.817,139.071 C112.47,143.211 111.261,146.596 107.123,146.596 L80.905,146.596 C76.766,146.596 71.204,143.211 68.549,139.071 L56.535,120.33 C54.617,117.337 55.491,114.89 58.482,114.89" id="Fill-25" fill="#FFFFFF"></path>
        <path d="M79.332,148.009 L205.648,148.009 C207.754,148.009 209.476,149.731 209.476,151.837 L209.476,153.921 C209.476,154.88 208.692,155.665 207.733,155.665 L77.25,155.665 C76.29,155.665 75.505,154.879 75.505,153.919 L75.505,151.837 C75.505,149.731 77.227,148.009 79.332,148.009" id="Fill-26" fill="#EDF4FF"></path>
        <path d="M79.332,148.009 L171.923,148.009 C174.029,148.009 175.751,149.731 175.751,151.837 L175.751,153.921 C175.751,154.88 174.967,155.665 174.008,155.665 L77.25,155.665 C76.29,155.665 75.505,154.879 75.505,153.919 L75.505,151.837 C75.505,149.731 77.227,148.009 79.332,148.009" id="Fill-27" fill="#FFFFFF"></path>
        <path d="M82.151,166.82 L198.909,166.82 L198.909,175.799 C198.909,178.356 196.817,180.448 194.26,180.448 L86.823,180.448 C84.253,180.448 82.151,178.346 82.151,175.776 L82.151,166.82" id="Fill-28" fill="#2275B9"></path>
        <path d="M82.151,166.82 L164.075,166.82 L164.075,175.799 C164.075,178.356 161.983,180.448 159.426,180.448 L86.823,180.448 C84.254,180.448 82.151,178.346 82.151,175.776 L82.151,166.82" id="Fill-29" fill="#13347D"></path>
        <path d="M93.992,169.145 C97.001,169.145 99.44,171.585 99.44,174.594 C99.44,177.603 97.001,180.043 93.992,180.043 C90.982,180.043 88.543,177.603 88.543,174.594 C88.543,171.585 90.982,169.145 93.992,169.145" id="Fill-30" fill="#092766"></path>
        <path d="M93.182,168.185 C96.191,168.185 98.63,170.625 98.63,173.634 C98.63,176.643 96.191,179.083 93.182,179.083 C90.172,179.083 87.733,176.643 87.733,173.634 C87.733,170.625 90.172,168.185 93.182,168.185" id="Fill-31" fill="#2275B9"></path>
        <polygon id="Fill-32" fill="#092766" points="102.096 207.962 109.231 207.962 109.231 180.448 102.096 180.448"></polygon>
        <polygon id="Fill-33" fill="#092766" points="136.994 207.962 144.129 207.962 144.129 180.448 136.994 180.448"></polygon>
        <polygon id="Stroke-34" stroke="#092766" stroke-width="0.216" points="136.994 207.962 144.129 207.962 144.129 180.448 136.994 180.448"></polygon>
        <path d="M100.021,180.448 L111.307,180.448 L111.307,194.589 C111.307,195.731 110.374,196.665 109.232,196.665 L102.096,196.665 C100.954,196.665 100.021,195.731 100.021,194.589 L100.021,180.448" id="Fill-35" fill="#1A64A1"></path>
        <path d="M100.021,180.448 L108.459,180.448 L108.459,194.589 C108.459,195.731 107.525,196.665 106.384,196.665 L102.096,196.665 C100.955,196.665 100.021,195.731 100.021,194.589 L100.021,180.448" id="Fill-36" fill="#2275B9"></path>
        <path d="M134.919,180.448 L146.205,180.448 L146.205,194.589 C146.205,195.731 145.272,196.665 144.13,196.665 L136.994,196.665 C135.853,196.665 134.919,195.731 134.919,194.589 L134.919,180.448" id="Fill-37" fill="#1A64A1"></path>
        <polygon id="Fill-38" fill="#1B69A8" points="172.282 207.962 179.417 207.962 179.417 180.448 172.282 180.448"></polygon>
        <path d="M170.206,180.448 L181.493,180.448 L181.493,194.589 C181.493,195.731 180.559,196.665 179.417,196.665 L172.282,196.665 C171.14,196.665 170.206,195.731 170.206,194.589 L170.206,180.448" id="Fill-39" fill="#499BDE"></path>
        <polyline id="Fill-40" fill="#13347D" points="92.519 170.604 93.844 170.604 93.844 172.972 96.212 172.972 96.212 174.296 93.844 174.296 93.844 176.664 92.519 176.664 92.519 174.296 90.151 174.296 90.151 172.972 92.519 172.972 92.519 170.604"></polyline>
        <path d="M105.139,169.362 L154.939,169.362 C157.289,169.362 159.212,171.284 159.212,173.634 C159.212,175.984 157.289,177.907 154.939,177.907 L105.139,177.907 C102.789,177.907 100.867,175.984 100.867,173.634 C100.867,171.284 102.789,169.362 105.139,169.362" id="Fill-41" fill="#092766"></path>
        <path d="M208.13,207.962 L75.396,207.962 C71.621,207.962 68.532,211.051 68.532,214.826 L214.994,214.826 C214.994,211.051 211.906,207.962 208.13,207.962" id="Fill-42" fill="#516287"></path>
        <path d="M173.986,207.962 L75.396,207.962 C71.621,207.962 68.532,211.051 68.532,214.826 L180.85,214.826 C180.85,211.051 177.761,207.962 173.986,207.962" id="Fill-43" fill="#6F83AD"></path>
        <path d="M79.182,152.709 L172.075,152.709 C172.479,152.709 172.81,153.039 172.81,153.444 C172.81,153.848 172.479,154.179 172.075,154.179 L79.182,154.179 C78.777,154.179 78.447,153.848 78.447,153.444 C78.447,153.039 78.777,152.709 79.182,152.709" id="Fill-44" fill="#EDF4FF"></path>
        <path d="M77.25,155.665 L207.858,155.665 C207.858,156.667 207.038,157.487 206.036,157.487 L79.073,157.487 C78.07,157.487 77.25,156.667 77.25,155.665" id="Fill-45" fill="#2D3B57"></path>
        <path d="M77.25,155.665 L172.806,155.665 C172.806,156.667 171.986,157.487 170.984,157.487 L79.072,157.487 C78.07,157.487 77.25,156.667 77.25,155.665" id="Fill-46" fill="#3E4D6E"></path>
        <path d="M103.291,174.507 L119.354,174.507 L119.354,172.761 L103.291,172.761 L103.291,174.507 Z M140.725,174.507 L156.788,174.507 L156.788,172.761 L140.725,172.761 L140.725,174.507 Z M122.008,174.507 L138.071,174.507 L138.071,172.761 L122.008,172.761 L122.008,174.507 Z" id="Fill-47" fill="#2275B9"></path>
        <path d="M102.057,181.459 L102.057,181.459 C102.449,181.459 102.769,181.779 102.769,182.171 L102.769,194.942 C102.769,195.334 102.449,195.654 102.057,195.654 C101.666,195.654 101.345,195.334 101.345,194.942 L101.345,182.171 C101.345,181.779 101.666,181.459 102.057,181.459" id="Fill-48" fill="#499BDE"></path>
        <path d="M134.919,180.448 L143.357,180.448 L143.357,194.589 C143.357,195.731 142.423,196.665 141.282,196.665 L136.994,196.665 C135.853,196.665 134.919,195.731 134.919,194.589 L134.919,180.448" id="Fill-49" fill="#2275B9"></path>
        <path d="M137.155,181.459 L137.155,181.459 C137.547,181.459 137.867,181.779 137.867,182.171 L137.867,194.942 C137.867,195.334 137.547,195.654 137.155,195.654 C136.763,195.654 136.443,195.334 136.443,194.942 L136.443,182.171 C136.443,181.779 136.763,181.459 137.155,181.459" id="Fill-50" fill="#499BDE"></path>
        <path d="M102.096,198.099 L105.759,198.099 C106.907,198.099 107.847,199.039 107.847,200.187 L107.847,207.962 L102.096,207.962 L102.096,198.099" id="Fill-51" fill="#13347D"></path>
        <path d="M136.994,198.099 L140.657,198.099 C141.805,198.099 142.745,199.039 142.745,200.187 L142.745,207.962 L136.994,207.962 L136.994,198.099" id="Fill-52" fill="#13347D"></path>
        <path d="M170.206,180.448 L178.645,180.448 L178.645,194.589 C178.645,195.731 177.711,196.665 176.569,196.665 L172.282,196.665 C171.14,196.665 170.206,195.731 170.206,194.589 L170.206,180.448" id="Fill-53" fill="#61ABE8"></path>
        <path d="M172.672,181.459 L172.672,181.459 C173.064,181.459 173.384,181.779 173.384,182.171 L173.384,194.942 C173.384,195.334 173.064,195.654 172.672,195.654 C172.281,195.654 171.96,195.334 171.96,194.942 L171.96,182.171 C171.96,181.779 172.281,181.459 172.672,181.459" id="Fill-54" fill="#77C0FC"></path>
        <path d="M172.282,198.099 L175.945,198.099 C177.093,198.099 178.032,199.039 178.032,200.187 L178.032,207.962 L172.282,207.962 L172.282,198.099" id="Fill-55" fill="#2275B9"></path>
        <path d="M241.552,151.389 L269.653,151.389 L269.653,208.414 L260.067,208.414 L260.067,165.094 C260.067,162.639 258.058,160.63 255.603,160.63 C253.148,160.63 251.139,162.639 251.139,165.094 L251.139,208.414 L241.552,208.414 L241.552,151.389" id="Fill-56" fill="#2275B9"></path>
        <path d="M241.552,151.389 L269.653,151.389 L269.653,172.35 L260.067,172.35 L260.067,165.094 C260.067,162.639 258.058,160.63 255.603,160.63 C253.148,160.63 251.139,162.639 251.139,165.094 L251.139,172.35 L241.552,172.35 L241.552,151.389" id="Fill-57" fill="#1D5EA4"></path>
        <path d="M251.467,96.853 L259.746,96.853 C269.861,96.853 278.137,105.13 278.137,115.245 L278.137,127.3 L274.355,127.3 L274.355,162.816 L261.035,162.816 L261.035,136.02 L250.17,136.02 L250.17,162.816 L237.186,162.816 L237.186,131.859 L233.067,131.859 L233.067,115.253 C233.067,105.133 241.347,96.853 251.467,96.853" id="Fill-58" fill="#FFFFFF"></path>
        <path d="M251.467,96.853 L259.746,96.853 C260.172,96.853 260.595,96.869 261.014,96.899 L261.014,102.354 C261.014,105.331 258.579,107.766 255.603,107.766 C252.626,107.766 250.19,105.331 250.19,102.354 L250.19,96.899 C250.613,96.87 251.038,96.853 251.467,96.853" id="Fill-59" fill="#516287"></path>
        <path d="M251.467,96.854 L252.222,96.854 L252.222,106.572 C250.986,105.578 250.19,104.055 250.19,102.354 L250.19,96.899 C250.612,96.87 251.038,96.854 251.467,96.854" id="Fill-60" fill="#3E4D6E"></path>
        <path d="M251.013,63.643 L260.2,63.643 C265.484,63.643 269.806,67.965 269.806,73.248 L269.806,79.628 C269.806,87.437 263.417,93.827 255.607,93.827 L255.606,93.827 C247.797,93.827 241.408,87.437 241.408,79.628 L241.408,73.248 C241.408,67.965 245.73,63.643 251.013,63.643" id="Fill-65" fill="#F7B495"></path>
        <g id="Group-63" transform="translate(250.000000, 83.000000)">
            <mask id="mask-2" fill="white">
                <use xlink:href="#path-1"></use>
            </mask>
            <g id="Clip-62"></g>
            <path d="M0.951,0.838 L10.263,0.838 L10.263,13.723 C10.263,16.284 8.168,18.379 5.607,18.379 L5.606,18.379 C3.046,18.379 0.951,16.284 0.951,13.723 L0.951,0.838" id="Fill-61" mask="url(#mask-2)"></path>
        </g>
        <path d="M254.962,53.186 L256.252,53.186 C264.401,53.186 271.068,59.853 271.068,68.002 L271.068,70.346 C271.068,72.41 269.379,74.099 267.315,74.099 L243.905,74.099 C241.837,74.099 240.145,72.407 240.145,70.34 L240.145,68.002 C240.145,59.853 246.813,53.186 254.962,53.186" id="Fill-64" fill="#3C3754"></path>
        <path d="M248.993,75.409 C249.703,75.409 250.279,75.985 250.279,76.695 C250.279,77.405 249.703,77.981 248.993,77.981 C248.283,77.981 247.707,77.405 247.707,76.695 C247.707,75.985 248.283,75.409 248.993,75.409" id="Fill-67" fill="#33516B"></path>
        <path d="M261.958,75.409 C262.668,75.409 263.244,75.985 263.244,76.695 C263.244,77.405 262.668,77.981 261.958,77.981 C261.247,77.981 260.671,77.405 260.671,76.695 C260.671,75.985 261.247,75.409 261.958,75.409" id="Fill-68" fill="#33516B"></path>
        <path d="M252.482,87.141 L258.732,87.141 C258.867,87.141 258.977,87.251 258.977,87.386 C258.977,88.355 258.184,89.148 257.215,89.148 L253.999,89.148 C253.03,89.148 252.237,88.355 252.237,87.386 C252.237,87.251 252.347,87.141 252.482,87.141" id="Fill-69" fill="#E88B74"></path>
        <path d="M241.408,73.248 L240.862,73.248 C239.775,73.248 238.886,74.137 238.886,75.224 L238.886,77.621 C238.886,79.007 240.021,80.142 241.408,80.142 L241.408,73.248" id="Fill-70" fill="#F8B495"></path>
        <path d="M239.82,79.576 C240.254,79.93 240.807,80.142 241.408,80.142 L241.408,74.502 L240.949,74.502 C240.036,74.502 239.289,75.249 239.289,76.162 L239.289,78.177 C239.289,78.712 239.49,79.202 239.82,79.576" id="Fill-71" fill="#E88B74"></path>
        <path d="M255.832,76.324 L257.71,80.786 C257.834,81.08 257.885,81.856 257.71,81.856 L253.504,81.856 C253.329,81.856 253.38,81.08 253.504,80.786 L255.382,76.324 C255.506,76.03 255.708,76.03 255.832,76.324" id="Fill-72" fill="#E88B74"></path>
        <polyline id="Fill-73" points="270.02 132.123 270.02 107.766 241.186 107.766 241.186 130.358 270.02 132.123"></polyline>
        <path d="M250.17,132.96 L250.17,162.816 L237.186,162.816 L237.186,131.372 L250.17,131.372 L250.17,132.96 Z M274.354,132.96 L274.354,162.816 L261.036,162.816 L261.036,131.372 L274.354,131.372 L274.354,132.96 L274.354,132.96 Z" id="Fill-75"></path>
        <path d="M260.263,95.515 C261.052,95.869 261.766,96.364 262.37,96.969 C263.644,98.242 264.434,99.999 264.434,101.932 L264.434,111.81 C264.434,113.743 263.644,115.5 262.37,116.773 C261.097,118.046 259.34,118.837 257.407,118.837 L253.798,118.837 C251.865,118.837 250.108,118.046 248.835,116.773 C247.561,115.5 246.771,113.743 246.771,111.81 L246.771,101.932 C246.771,99.999 247.561,98.242 248.835,96.969 C249.441,96.362 250.158,95.865 250.951,95.511 L250.951,96.723 C250.951,96.754 250.952,96.784 250.952,96.815 C250.477,97.081 250.042,97.411 249.66,97.794 C248.597,98.856 247.938,100.321 247.938,101.932 L247.938,111.81 C247.938,113.421 248.597,114.886 249.66,115.948 C250.722,117.011 252.187,117.67 253.798,117.67 L257.407,117.67 C259.018,117.67 260.483,117.011 261.546,115.948 C262.608,114.886 263.267,113.421 263.267,111.81 L263.267,101.932 C263.267,100.321 262.608,98.856 261.546,97.794 C261.165,97.413 260.733,97.084 260.262,96.82 C260.262,96.787 260.263,96.755 260.263,96.723 L260.263,95.515" id="Fill-77" fill="#CBD5D6"></path>
        <polygon id="Fill-78" fill="#3E4D6E" points="250.17 160.496 261.035 160.496 261.035 136.02 250.17 136.02"></polygon>
        <path d="M261.035,139.733 L261.035,158.661 L255.895,158.661 C253.824,158.661 252.13,156.966 252.13,154.896 L252.13,139.733 L261.035,139.733" id="Fill-79" fill="#516287"></path>
        <path d="M252.449,110.166 L268.147,114.373 C269.577,114.756 270.434,116.24 270.051,117.67 L262.742,144.946 L241.855,139.35 L249.167,112.061 C249.549,110.638 251.025,109.785 252.449,110.166" id="Fill-80" fill="#FDD68B"></path>
        <path d="M234.502,125.731 L258.358,132.123 L256.28,139.875 L235.187,134.223 C233.668,133.816 232.758,132.24 233.165,130.72 L234.502,125.731" id="Fill-81" fill="#FFFFFF"></path>
        <path d="M254.282,120.908 L278.137,127.301 L277.099,131.177 C276.528,133.309 274.316,134.585 272.184,134.014 L252.204,128.661 L254.282,120.908" id="Fill-82" fill="#FFFFFF"></path>
        <path d="M256.38,109.926 L265.367,112.333 C266.071,112.522 266.493,113.253 266.304,113.957 C266.115,114.662 265.385,115.083 264.681,114.895 L255.694,112.487 C254.989,112.298 254.568,111.568 254.756,110.863 L254.757,110.863 C254.945,110.158 255.676,109.737 256.38,109.926" id="Fill-83" fill="#516287"></path>
        <path d="M252.421,127.882 L251.976,127.763 C251.117,127.533 250.603,126.641 250.833,125.782 L251.727,122.445 C251.957,121.586 252.848,121.071 253.708,121.301 L254.152,121.421 L252.421,127.882" id="Fill-84" fill="#FAB491"></path>
        <path d="M258.186,132.764 L258.626,132.882 C259.478,133.11 259.988,133.994 259.76,134.845 L258.874,138.152 C258.645,139.004 257.762,139.514 256.91,139.286 L256.47,139.168 L258.186,132.764" id="Fill-85" fill="#FAB491"></path>
        <path d="M247.986,81.425 C248.945,81.425 249.723,82.202 249.723,83.161 C249.723,84.12 248.945,84.897 247.986,84.897 C247.027,84.897 246.25,84.12 246.25,83.161 C246.25,82.202 247.027,81.425 247.986,81.425" id="Fill-86" fill="#ED7376"></path>
        <path d="M263.227,81.425 C264.186,81.425 264.963,82.202 264.963,83.161 C264.963,84.12 264.186,84.897 263.227,84.897 C262.268,84.897 261.491,84.12 261.491,83.161 C261.491,82.202 262.268,81.425 263.227,81.425" id="Fill-87" fill="#ED7376"></path>
        <path d="M269.806,73.248 L270.351,73.248 C271.438,73.248 272.327,74.137 272.327,75.224 L272.327,77.621 C272.327,79.007 271.193,80.142 269.806,80.142 L269.806,73.248" id="Fill-88" fill="#F8B495"></path>
        <path d="M271.393,79.576 C270.959,79.93 270.406,80.142 269.806,80.142 L269.806,74.502 L270.264,74.502 C271.178,74.502 271.924,75.249 271.924,76.162 L271.924,78.177 C271.924,78.712 271.723,79.202 271.393,79.576" id="Fill-89" fill="#E88B74"></path>
        <path d="M251.139,208.414 L239.794,208.414 C237.243,208.414 235.155,210.501 235.155,213.052 L235.155,213.898 C235.155,214.409 235.572,214.826 236.083,214.826 L250.211,214.826 C250.721,214.826 251.139,214.409 251.139,213.898 L251.139,208.414" id="Fill-90" fill="#362A1F"></path>
        <path d="M235.155,213.706 L235.155,213.898 C235.155,214.409 235.573,214.826 236.083,214.826 L250.211,214.826 C250.721,214.826 251.139,214.409 251.139,213.898 L251.139,213.706 L235.155,213.706" id="Fill-91" fill="#130D09"></path>
        <path d="M241.552,208.414 L239.794,208.414 C237.616,208.414 235.777,209.935 235.285,211.967 L240.322,211.967 C240.998,211.967 241.552,211.414 241.552,210.737 L241.552,208.414" id="Fill-92" fill="#5C4E42"></path>
        <path d="M240.039,208.115 L240.04,208.115 C240.204,208.115 240.339,208.249 240.339,208.414 L240.339,209.928 C240.339,210.092 240.204,210.227 240.04,210.227 L240.039,210.227 C239.875,210.227 239.741,210.092 239.741,209.928 L239.741,208.414 C239.741,208.249 239.875,208.115 240.039,208.115" id="Fill-93" fill="#FDD68B"></path>
        <path d="M238.707,208.205 L238.708,208.205 C238.872,208.205 239.007,208.34 239.007,208.504 L239.007,209.928 C239.007,210.092 238.872,210.227 238.708,210.227 L238.707,210.227 C238.543,210.227 238.408,210.092 238.408,209.928 L238.408,208.504 C238.408,208.34 238.543,208.205 238.707,208.205" id="Fill-94" fill="#FDD68B"></path>
        <path d="M269.653,208.414 L258.309,208.414 C255.757,208.414 253.67,210.501 253.67,213.052 L253.67,213.898 C253.67,214.409 254.087,214.826 254.598,214.826 L268.726,214.826 C269.236,214.826 269.653,214.409 269.653,213.898 L269.653,208.414" id="Fill-95" fill="#362A1F"></path>
        <path d="M253.67,213.706 L253.67,213.898 C253.67,214.409 254.087,214.826 254.598,214.826 L268.726,214.826 C269.236,214.826 269.653,214.409 269.653,213.898 L269.653,213.706 L253.67,213.706" id="Fill-96" fill="#130D09"></path>
        <path d="M260.066,208.414 L258.309,208.414 C256.131,208.414 254.291,209.935 253.8,211.967 L258.836,211.967 C259.513,211.967 260.066,211.414 260.066,210.737 L260.066,208.414" id="Fill-97" fill="#5C4E42"></path>
        <path d="M258.554,208.115 L258.555,208.115 C258.719,208.115 258.853,208.249 258.853,208.414 L258.853,209.928 C258.853,210.092 258.719,210.227 258.555,210.227 L258.554,210.227 C258.39,210.227 258.255,210.092 258.255,209.928 L258.255,208.414 C258.255,208.249 258.39,208.115 258.554,208.115" id="Fill-98" fill="#FDD68B"></path>
        <path d="M257.222,208.205 L257.223,208.205 C257.387,208.205 257.521,208.34 257.521,208.504 L257.521,209.928 C257.521,210.092 257.387,210.227 257.223,210.227 L257.222,210.227 C257.058,210.227 256.923,210.092 256.923,209.928 L256.923,208.504 C256.923,208.34 257.058,208.205 257.222,208.205" id="Fill-99" fill="#FDD68B"></path>
        <polygon id="Fill-100" fill="#1D5EA4" points="248.002 208.414 251.139 208.414 251.139 171.81 248.002 171.81"></polygon>
        <polygon id="Fill-101" fill="#1D5EA4" points="266.517 208.414 269.654 208.414 269.654 171.81 266.517 171.81"></polygon>
        <path d="M74.091,213.422 L175.292,213.422 C176.065,213.422 176.697,214.053 176.697,214.826 L72.686,214.826 C72.686,214.053 73.318,213.422 74.091,213.422" id="Fill-102" fill="#516287"></path>
        <polygon id="Fill-103" fill="#61DDFF" points="118.076 49.553 161.077 49.553 161.077 43.672 118.076 43.672"></polygon>
        <polygon id="Fill-104" fill="#61DDFF" points="175.411 49.553 218.412 49.553 218.412 43.672 175.411 43.672"></polygon>
        <path d="M76.49,79.293 L98.899,79.293 C99.986,79.293 100.875,80.182 100.875,81.268 L100.875,104.147 C100.875,105.233 99.986,106.122 98.899,106.122 L72.203,106.122 C66.358,106.122 62.908,100.625 65.71,95.495 L72.233,83.55 C73.355,81.495 74.149,79.293 76.49,79.293" id="Fill-105" fill="#5C6C91"></path>
        <path d="M78.443,79.293 L98.647,79.293 C99.872,79.293 100.875,80.295 100.875,81.521 L100.875,103.894 C100.875,105.12 99.872,106.122 98.647,106.122 L78.443,106.122 C77.202,106.122 76.188,105.108 76.188,103.867 L76.188,81.548 C76.188,80.308 77.202,79.293 78.443,79.293" id="Fill-106" fill="#6F83AD"></path>
        <path d="M79.11,80.79 L97.953,80.79 C98.848,80.79 99.58,81.521 99.58,82.416 L99.58,102.999 C99.58,103.894 98.848,104.626 97.953,104.626 L79.11,104.626 C78.215,104.626 77.483,103.894 77.483,102.999 L77.483,82.416 C77.483,81.521 78.215,80.79 79.11,80.79" id="Fill-107" fill="#FFFFFF"></path>
        <path d="M79.675,82.119 L93.876,82.119 C94.283,82.119 94.615,82.452 94.615,82.859 L94.615,102.557 C94.615,102.964 94.283,103.296 93.876,103.296 L79.675,103.296 C79.268,103.296 78.936,102.964 78.936,102.557 L78.936,82.859 C78.936,82.452 79.268,82.119 79.675,82.119" id="Fill-108" fill="#5C6C91"></path>
        <polyline id="Fill-109" fill="#D2E68D" points="78.936 91.999 81.605 91.999 81.812 92.348 82.994 94.337 85.896 88.546 88.239 91.999 94.615 91.999 94.615 93.416 87.495 93.416 86.08 91.33 83.098 97.282 80.801 93.416 78.936 93.416 78.936 91.999"></polyline>
        <path d="M98.055,99.891 C98.654,100.181 99.066,100.795 99.066,101.505 C99.066,102.214 98.654,102.828 98.055,103.118 L98.055,103.296 L97.275,103.296 C96.285,103.296 95.483,102.494 95.483,101.505 C95.483,100.515 96.285,99.713 97.275,99.713 L98.055,99.713 L98.055,99.891" id="Fill-110" fill="#5C6C91"></path>
        <path d="M97.662,94.604 C97.954,94.792 98.148,95.12 98.148,95.493 C98.148,95.866 97.954,96.195 97.662,96.383 L97.662,96.55 L97.091,96.55 C96.508,96.55 96.034,96.077 96.034,95.493 C96.034,94.91 96.508,94.437 97.091,94.437 L97.662,94.437 L97.662,94.604" id="Fill-111" fill="#5C6C91"></path>
        <path d="M98.055,99.713 C99.045,99.713 99.847,100.515 99.847,101.505 C99.847,102.494 99.045,103.296 98.055,103.296 C97.066,103.296 96.263,102.494 96.263,101.505 C96.263,100.515 97.066,99.713 98.055,99.713" id="Fill-112" fill="#61ABE8"></path>
        <path d="M97.662,94.437 C98.245,94.437 98.719,94.91 98.719,95.493 C98.719,96.077 98.245,96.55 97.662,96.55 C97.078,96.55 96.605,96.077 96.605,95.493 C96.605,94.91 97.078,94.437 97.662,94.437" id="Fill-113" fill="#61ABE8"></path>
        <path d="M97.662,89.545 C97.954,89.733 98.148,90.061 98.148,90.434 C98.148,90.807 97.954,91.135 97.662,91.323 L97.662,91.491 L97.091,91.491 C96.508,91.491 96.034,91.018 96.034,90.434 C96.034,89.85 96.508,89.377 97.091,89.377 L97.662,89.377 L97.662,89.545" id="Fill-114" fill="#5C6C91"></path>
        <path d="M97.662,89.377 C98.245,89.377 98.719,89.85 98.719,90.434 C98.719,91.018 98.245,91.491 97.662,91.491 C97.078,91.491 96.605,91.018 96.605,90.434 C96.605,89.85 97.078,89.377 97.662,89.377" id="Fill-115" fill="#61ABE8"></path>
        <path d="M97.662,84.308 C97.954,84.496 98.148,84.824 98.148,85.197 C98.148,85.57 97.954,85.898 97.662,86.086 L97.662,86.254 L97.091,86.254 C96.508,86.254 96.034,85.781 96.034,85.197 C96.034,84.614 96.508,84.14 97.091,84.14 L97.662,84.14 L97.662,84.308" id="Fill-116" fill="#5C6C91"></path>
        <path d="M97.662,84.14 C98.245,84.14 98.719,84.613 98.719,85.197 C98.719,85.781 98.245,86.254 97.662,86.254 C97.078,86.254 96.605,85.781 96.605,85.197 C96.605,84.613 97.078,84.14 97.662,84.14" id="Fill-117" fill="#61ABE8"></path>
        <path d="M79.825,39.876 C87.234,39.876 93.24,45.882 93.24,53.29 C93.24,60.699 87.234,66.705 79.825,66.705 C72.417,66.705 66.411,60.699 66.411,53.29 C66.411,45.882 72.417,39.876 79.825,39.876" id="Fill-118" fill="#96E8FF"></path>
        <path d="M86.401,57.816 C86.947,58.352 86.954,59.229 86.418,59.775 C85.881,60.32 85.004,60.327 84.459,59.791 L78.436,53.867 L78.436,44.194 C78.436,43.427 79.058,42.805 79.825,42.805 C80.592,42.805 81.214,43.427 81.214,44.194 L81.214,52.714 L86.401,57.816" id="Fill-119" fill="#61DDFF"></path>
        <path d="M77.016,108.823 L97.239,108.823 C98.095,108.823 98.795,109.522 98.795,110.378 C98.795,111.234 98.095,111.934 97.239,111.934 L77.016,111.934 C76.161,111.934 75.461,111.234 75.461,110.378 C75.461,109.522 76.161,108.823 77.016,108.823" id="Fill-120" fill="#61DDFF"></path>
    </g>
</svg>